# xmcd
#
# Track frame offsets:
#	150
#	14040
#	24852
#	35480
#	47100
#	59812
#	72712
#	82807
#	93867
#	107285
#	118355
#	128945
#	140395
#
# Disc length: 2037 seconds
#
# Revision: 3
# Processed by: cddbd v1.5.2PL0 Copyright (c) Steve Scherf et al.
# Submitted via: audiograbber 1.83.01
#
DISCID=b507f30d
DTITLE=Willie Nelson - The Best Of Willie Nelson
DYEAR=1973
DGENRE=Country
TTITLE0=Funny How Time Slips Away
TTITLE1=Hello Walls
TTITLE2=The Part Where I Cry
TTITLE3=Undo The Right
TTITLE4=Wake Me When It's Over
TTITLE5=Crazy
TTITLE6=Touch Me
TTITLE7=One Step Beyond
TTITLE8=Three Days
TTITLE9=Half A Man
TTITLE10=Where My House Lives
TTITLE11=Darkness On The Face Of The Earth
TTITLE12=Mr. Record Man
EXTD=
EXTT0=
EXTT1=
EXTT2=
EXTT3=
EXTT4=
EXTT5=
EXTT6=
EXTT7=
EXTT8=
EXTT9=
EXTT10=
EXTT11=
EXTT12=
PLAYORDER=
